<?xml version="1.0" encoding="UTF-8" standalone="no"?>
<!-- Created with Inkscape (http://www.inkscape.org/) -->

<svg
   xmlns:dc="http://purl.org/dc/elements/1.1/"
   xmlns:cc="http://creativecommons.org/ns#"
   xmlns:rdf="http://www.w3.org/1999/02/22-rdf-syntax-ns#"
   xmlns:svg="http://www.w3.org/2000/svg"
   xmlns="http://www.w3.org/2000/svg"
   xmlns:sodipodi="http://sodipodi.sourceforge.net/DTD/sodipodi-0.dtd"
   xmlns:inkscape="http://www.inkscape.org/namespaces/inkscape"
   id="svg4422"
   version="1.1"
   inkscape:version="0.48.4 r9939"
   width="121.28375"
   height="33.476437"
   xml:space="preserve"
   sodipodi:docname="logo.svg"><metadata
     id="metadata4428"><rdf:RDF><cc:Work
         rdf:about=""><dc:format>image/svg+xml</dc:format><dc:type
           rdf:resource="http://purl.org/dc/dcmitype/StillImage" /><dc:title /></cc:Work></rdf:RDF></metadata><defs
     id="defs4426"><clipPath
       clipPathUnits="userSpaceOnUse"
       id="clipPath4436"><path
         d="m 0,160.975 166,0 L 166,0 0,0 0,160.975 z"
         id="path4438"
         inkscape:connector-curvature="0" /></clipPath></defs><sodipodi:namedview
     pagecolor="#ffffff"
     bordercolor="#666666"
     borderopacity="1"
     objecttolerance="10"
     gridtolerance="10"
     guidetolerance="10"
     inkscape:pageopacity="0"
     inkscape:pageshadow="2"
     inkscape:window-width="1855"
     inkscape:window-height="1056"
     id="namedview4424"
     showgrid="false"
     inkscape:zoom="9.3828234"
     inkscape:cx="390.79267"
     inkscape:cy="4.0139645"
     inkscape:window-x="65"
     inkscape:window-y="24"
     inkscape:window-maximized="1"
     inkscape:current-layer="g4430"
     fit-margin-top="0"
     fit-margin-left="0"
     fit-margin-right="0"
     fit-margin-bottom="0" /><g
     id="g4430"
     inkscape:groupmode="layer"
     inkscape:label="UPDATED ALEXANDER BAR LOGO"
     transform="matrix(1.25,0,0,-1.25,-34.738625,117.44075)"><g
       id="g4462"
       transform="translate(36.4312,83.4556)"
       style="fill:#ffffff"><path
         d="m 0,0 c 0.074,0 0.088,0.043 0.074,0.087 l -1.311,3.598 c -0.015,0.058 -0.03,0.13 -0.075,0.13 -0.042,0 -0.071,-0.072 -0.086,-0.13 L -2.738,0.102 C -2.752,0.043 -2.738,0 -2.68,0 L 0,0 z m -2.971,-0.729 c -0.073,0 -0.102,-0.028 -0.131,-0.116 l -0.787,-2.082 c -0.144,-0.365 -0.218,-0.715 -0.218,-0.889 0,-0.262 0.13,-0.451 0.584,-0.451 l 0.216,0 c 0.176,0 0.22,-0.029 0.22,-0.117 0,-0.116 -0.088,-0.145 -0.248,-0.145 -0.466,0 -1.092,0.043 -1.544,0.043 -0.16,0 -0.962,-0.043 -1.719,-0.043 -0.189,0 -0.276,0.029 -0.276,0.145 0,0.088 0.059,0.117 0.175,0.117 0.132,0 0.334,0.014 0.451,0.028 0.67,0.088 0.946,0.583 1.238,1.312 l 3.656,9.146 c 0.174,0.422 0.262,0.582 0.408,0.582 0.131,0 0.218,-0.131 0.364,-0.466 0.35,-0.801 2.68,-6.743 3.612,-8.957 0.553,-1.31 0.975,-1.514 1.282,-1.587 0.217,-0.044 0.437,-0.058 0.611,-0.058 0.117,0 0.189,-0.015 0.189,-0.117 0,-0.116 -0.131,-0.145 -0.67,-0.145 -0.524,0 -1.588,0 -2.752,0.029 -0.262,0.014 -0.437,0.014 -0.437,0.116 0,0.088 0.059,0.117 0.204,0.131 0.102,0.029 0.203,0.16 0.131,0.335 L 0.422,-0.83 c -0.028,0.073 -0.071,0.101 -0.146,0.101 l -3.247,0 z"
         style="fill:#ffffff;fill-opacity:1;fill-rule:nonzero;stroke:none"
         id="path4464"
         inkscape:connector-curvature="0" /></g><g
       id="g4466"
       transform="translate(44.104,83.1499)"
       style="fill:#ffffff"><path
         d="m 0,0 c 0,-1.864 0,-2.87 0.306,-3.132 0.248,-0.218 0.627,-0.32 1.762,-0.32 0.772,0 1.34,0.014 1.703,0.408 0.176,0.189 0.351,0.597 0.379,0.874 0.015,0.13 0.043,0.218 0.161,0.218 0.102,0 0.117,-0.073 0.117,-0.248 0,-0.159 -0.103,-1.252 -0.219,-1.675 -0.087,-0.32 -0.161,-0.393 -0.918,-0.393 -1.048,0 -1.806,0.029 -2.461,0.044 -0.655,0.029 -1.18,0.044 -1.776,0.044 -0.161,0 -0.482,0 -0.831,-0.015 -0.335,0 -0.714,-0.029 -1.005,-0.029 -0.19,0 -0.29,0.044 -0.29,0.145 0,0.073 0.056,0.118 0.232,0.118 0.218,0 0.393,0.028 0.525,0.057 0.292,0.059 0.363,0.379 0.422,0.801 0.072,0.612 0.072,1.763 0.072,3.103 l 0,2.563 c 0,2.214 0,2.622 -0.029,3.087 -0.028,0.496 -0.145,0.729 -0.627,0.83 -0.115,0.03 -0.291,0.045 -0.479,0.045 -0.16,0 -0.248,0.028 -0.248,0.13 0,0.103 0.101,0.132 0.32,0.132 0.684,0 1.602,-0.044 1.995,-0.044 0.351,0 1.413,0.044 1.981,0.044 0.204,0 0.305,-0.029 0.305,-0.132 0,-0.102 -0.085,-0.13 -0.261,-0.13 C 0.976,6.525 0.743,6.51 0.567,6.48 0.175,6.408 0.058,6.161 0.029,5.65 0,5.185 0,4.777 0,2.563 L 0,0 z"
         style="fill:#ffffff;fill-opacity:1;fill-rule:nonzero;stroke:none"
         id="path4468"
         inkscape:connector-curvature="0" /></g><g
       id="g4470"
       transform="translate(50.0024,85.7129)"
       style="fill:#ffffff"><path
         d="m 0,0 c 0,2.214 0,2.622 -0.03,3.087 -0.029,0.496 -0.146,0.729 -0.626,0.83 -0.115,0.03 -0.364,0.045 -0.569,0.045 -0.159,0 -0.246,0.028 -0.246,0.13 0,0.103 0.101,0.132 0.321,0.132 0.393,0 0.815,-0.015 1.179,-0.015 C 0.407,4.195 0.742,4.18 0.946,4.18 c 0.466,0 3.365,0 3.642,0.015 0.276,0.029 0.51,0.057 0.626,0.087 C 5.286,4.297 5.374,4.34 5.446,4.34 5.52,4.34 5.534,4.282 5.534,4.209 5.534,4.107 5.461,3.933 5.417,3.263 5.403,3.117 5.374,2.476 5.345,2.301 5.33,2.228 5.301,2.141 5.199,2.141 5.098,2.141 5.068,2.214 5.068,2.345 5.068,2.447 5.054,2.694 4.98,2.869 4.879,3.131 4.733,3.306 4.005,3.394 3.758,3.422 2.228,3.452 1.937,3.452 1.864,3.452 1.834,3.408 1.834,3.306 l 0,-3.685 c 0,-0.101 0.015,-0.16 0.103,-0.16 0.32,0 1.995,0 2.33,0.029 0.349,0.03 0.568,0.073 0.7,0.219 0.101,0.116 0.159,0.189 0.232,0.189 0.059,0 0.102,-0.029 0.102,-0.116 0,-0.088 -0.058,-0.321 -0.116,-1.064 -0.016,-0.291 -0.059,-0.873 -0.059,-0.975 0,-0.117 0,-0.278 -0.131,-0.278 -0.102,0 -0.131,0.059 -0.131,0.132 -0.014,0.146 -0.014,0.335 -0.058,0.524 -0.073,0.292 -0.277,0.51 -0.816,0.568 -0.277,0.029 -1.719,0.044 -2.068,0.044 -0.073,0 -0.088,-0.058 -0.088,-0.146 l 0,-1.15 c 0,-0.496 -0.014,-1.835 0,-2.258 0.03,-1.005 0.263,-1.223 1.748,-1.223 0.379,0 0.991,0 1.369,0.174 0.379,0.175 0.554,0.481 0.655,1.078 0.031,0.16 0.059,0.219 0.162,0.219 0.116,0 0.116,-0.116 0.116,-0.262 0,-0.335 -0.116,-1.326 -0.191,-1.617 -0.1,-0.379 -0.232,-0.379 -0.786,-0.379 -1.092,0 -1.892,0.029 -2.518,0.044 -0.626,0.029 -1.079,0.044 -1.516,0.044 -0.159,0 -0.48,0 -0.829,-0.015 -0.336,0 -0.714,-0.029 -1.006,-0.029 -0.188,0 -0.291,0.044 -0.291,0.145 0,0.073 0.059,0.118 0.233,0.118 0.218,0 0.394,0.028 0.525,0.057 0.291,0.059 0.363,0.379 0.422,0.801 C 0,-5.054 0,-3.903 0,-2.563 L 0,0 z"
         style="fill:#ffffff;fill-opacity:1;fill-rule:nonzero;stroke:none"
         id="path4472"
         inkscape:connector-curvature="0" /></g><g
       id="g4474"
       transform="translate(62.6216,85.0142)"
       style="fill:#ffffff"><path
         d="m 0,0 c 0.467,-0.714 2.826,-4.661 3.189,-5.127 0.249,-0.32 0.467,-0.495 0.846,-0.612 0.247,-0.073 0.423,-0.087 0.554,-0.087 0.101,0 0.188,-0.029 0.188,-0.117 0,-0.101 -0.117,-0.145 -0.276,-0.145 l -0.437,0 c -0.35,0 -1.501,0 -2.622,0.029 -0.379,0.015 -0.495,0.044 -0.495,0.145 0,0.088 0.074,0.132 0.204,0.161 0.073,0.014 0.131,0.145 0.029,0.335 -0.801,1.427 -1.631,2.869 -2.301,3.961 l -2.154,-3.481 c -0.147,-0.233 -0.22,-0.451 -0.205,-0.611 0.014,-0.131 0.145,-0.219 0.276,-0.248 0.088,-0.015 0.22,-0.029 0.336,-0.029 0.087,0 0.174,-0.044 0.174,-0.131 0,-0.102 -0.102,-0.131 -0.29,-0.131 l -0.263,0 c -0.088,0 -1.005,0.044 -1.368,0.044 -0.279,0 -0.992,-0.044 -1.225,-0.044 l -0.248,0 c -0.144,0 -0.218,0.044 -0.218,0.131 0,0.087 0.087,0.131 0.204,0.131 0.102,0 0.321,0.014 0.539,0.073 0.423,0.116 0.7,0.393 1.194,1.092 l 2.782,3.976 -2.505,4.151 c -0.349,0.582 -0.7,0.932 -1.209,1.093 -0.232,0.072 -0.466,0.102 -0.611,0.102 -0.088,0 -0.146,0.043 -0.146,0.145 0,0.088 0.102,0.116 0.291,0.116 0.349,0 1.53,-0.044 2.213,-0.044 0.204,0 1.02,0.044 1.559,0.044 0.205,0 0.292,-0.028 0.292,-0.131 0,-0.102 -0.087,-0.13 -0.219,-0.13 -0.088,0 -0.276,-0.015 -0.393,-0.059 C -2.446,4.559 -2.49,4.456 -2.49,4.369 c 0,-0.088 0.058,-0.262 0.146,-0.423 0.626,-1.165 1.281,-2.228 1.849,-3.218 0.424,0.641 1.763,2.665 1.981,3.073 0.116,0.204 0.161,0.437 0.161,0.553 0,0.102 -0.102,0.219 -0.248,0.262 -0.145,0.045 -0.35,0.045 -0.467,0.045 -0.086,0 -0.174,0.028 -0.174,0.13 0,0.087 0.102,0.131 0.305,0.131 0.569,0 1.18,-0.044 1.457,-0.044 0.292,0 0.889,0.044 1.427,0.044 0.16,0 0.263,-0.044 0.263,-0.131 C 4.21,4.704 4.122,4.661 3.977,4.661 3.831,4.661 3.656,4.631 3.452,4.573 3.118,4.485 2.826,4.078 2.389,3.437 L 0,0 z"
         style="fill:#ffffff;fill-opacity:1;fill-rule:nonzero;stroke:none"
         id="path4476"
         inkscape:connector-curvature="0" /></g><g
       id="g4478"
       transform="translate(73.5581,83.4556)"
       style="fill:#ffffff"><path
         d="m 0,0 c 0.072,0 0.087,0.043 0.072,0.087 l -1.31,3.598 c -0.015,0.058 -0.03,0.13 -0.073,0.13 -0.043,0 -0.073,-0.072 -0.087,-0.13 L -2.738,0.102 C -2.752,0.043 -2.738,0 -2.68,0 L 0,0 z m -2.972,-0.729 c -0.071,0 -0.101,-0.028 -0.131,-0.116 l -0.786,-2.082 c -0.146,-0.365 -0.217,-0.715 -0.217,-0.889 0,-0.262 0.13,-0.451 0.582,-0.451 l 0.218,0 c 0.174,0 0.219,-0.029 0.219,-0.117 0,-0.116 -0.088,-0.145 -0.248,-0.145 -0.466,0 -1.092,0.043 -1.544,0.043 -0.16,0 -0.961,-0.043 -1.719,-0.043 -0.188,0 -0.276,0.029 -0.276,0.145 0,0.088 0.059,0.117 0.174,0.117 0.131,0 0.336,0.014 0.453,0.028 0.67,0.088 0.946,0.583 1.237,1.312 l 3.656,9.146 c 0.175,0.422 0.262,0.582 0.408,0.582 0.131,0 0.217,-0.131 0.363,-0.466 0.351,-0.801 2.681,-6.743 3.612,-8.957 0.554,-1.31 0.977,-1.514 1.283,-1.587 0.218,-0.044 0.436,-0.058 0.611,-0.058 0.116,0 0.189,-0.015 0.189,-0.117 0,-0.116 -0.131,-0.145 -0.67,-0.145 -0.524,0 -1.588,0 -2.753,0.029 -0.262,0.014 -0.436,0.014 -0.436,0.116 0,0.088 0.058,0.117 0.203,0.131 0.102,0.029 0.204,0.16 0.132,0.335 L 0.423,-0.83 C 0.394,-0.757 0.35,-0.729 0.277,-0.729 l -3.249,0 z"
         style="fill:#ffffff;fill-opacity:1;fill-rule:nonzero;stroke:none"
         id="path4480"
         inkscape:connector-curvature="0" /></g><g
       id="g4482"
       transform="translate(80.5288,80.9067)"
       style="fill:#ffffff"><path
         d="m 0,0 c 0.028,-1.136 0.218,-1.515 0.51,-1.617 0.247,-0.087 0.523,-0.101 0.756,-0.101 0.161,0 0.248,-0.03 0.248,-0.117 0,-0.117 -0.131,-0.145 -0.334,-0.145 -0.948,0 -1.531,0.043 -1.807,0.043 -0.132,0 -0.815,-0.043 -1.573,-0.043 -0.189,0 -0.321,0.014 -0.321,0.145 0,0.087 0.087,0.117 0.234,0.117 0.188,0 0.451,0.014 0.655,0.072 0.379,0.117 0.438,0.539 0.451,1.806 l 0.132,8.622 c 0,0.292 0.043,0.495 0.188,0.495 0.161,0 0.292,-0.189 0.54,-0.451 C -0.146,8.637 2.066,6.262 4.193,4.151 5.185,3.16 7.15,1.063 7.398,0.83 l 0.073,0 -0.146,6.54 C 7.311,8.258 7.18,8.535 6.83,8.68 6.611,8.768 6.262,8.768 6.058,8.768 c -0.175,0 -0.233,0.044 -0.233,0.13 0,0.117 0.16,0.132 0.379,0.132 0.757,0 1.455,-0.044 1.763,-0.044 0.159,0 0.713,0.044 1.426,0.044 0.19,0 0.336,-0.015 0.336,-0.132 0,-0.086 -0.088,-0.13 -0.263,-0.13 -0.146,0 -0.262,0 -0.438,-0.044 C 8.621,8.607 8.506,8.302 8.49,7.486 l -0.16,-9.19 c 0,-0.321 -0.059,-0.452 -0.189,-0.452 -0.161,0 -0.335,0.16 -0.496,0.321 C 6.728,-0.961 4.863,0.947 3.349,2.447 1.762,4.02 0.145,5.84 -0.117,6.117 l -0.044,0 L 0,0 z"
         style="fill:#ffffff;fill-opacity:1;fill-rule:nonzero;stroke:none"
         id="path4484"
         inkscape:connector-curvature="0" /></g><g
       id="g4486"
       transform="translate(94.1743,84.1104)"
       style="fill:#ffffff"><path
         d="m 0,0 c 0,-1.543 0.014,-2.665 0.028,-2.941 0.016,-0.365 0.045,-0.947 0.161,-1.107 0.19,-0.277 0.757,-0.583 1.909,-0.583 1.485,0 2.475,0.291 3.349,1.049 0.932,0.801 1.223,2.126 1.223,3.626 0,1.85 -0.772,3.044 -1.398,3.641 C 3.933,4.967 2.271,5.142 1.137,5.142 0.845,5.142 0.306,5.098 0.189,5.04 0.059,4.981 0.014,4.909 0.014,4.749 0,4.253 0,2.986 0,1.836 L 0,0 z m -1.82,1.603 c 0,2.213 0,2.621 -0.031,3.087 -0.028,0.495 -0.144,0.728 -0.625,0.83 -0.116,0.029 -0.364,0.044 -0.568,0.044 -0.16,0 -0.247,0.029 -0.247,0.131 0,0.102 0.102,0.131 0.32,0.131 0.772,0 1.69,-0.044 2.097,-0.044 0.452,0 1.369,0.044 2.243,0.044 1.82,0 4.252,0 5.84,-1.66 C 7.938,3.409 8.622,2.2 8.622,0.466 8.622,-1.369 7.85,-2.767 7.034,-3.597 6.365,-4.281 4.85,-5.315 2.155,-5.315 c -0.524,0 -1.121,0.043 -1.674,0.086 -0.554,0.045 -1.063,0.088 -1.427,0.088 -0.16,0 -0.481,0 -0.83,-0.014 -0.336,0 -0.714,-0.029 -1.006,-0.029 -0.189,0 -0.291,0.043 -0.291,0.145 0,0.073 0.058,0.117 0.233,0.117 0.219,0 0.394,0.028 0.525,0.058 0.291,0.058 0.364,0.379 0.421,0.801 0.074,0.612 0.074,1.762 0.074,3.103 l 0,2.563 z"
         style="fill:#ffffff;fill-opacity:1;fill-rule:nonzero;stroke:none"
         id="path4488"
         inkscape:connector-curvature="0" /></g><g
       id="g4490"
       transform="translate(104.7222,85.7129)"
       style="fill:#ffffff"><path
         d="m 0,0 c 0,2.214 0,2.622 -0.029,3.087 -0.031,0.496 -0.146,0.729 -0.626,0.83 -0.117,0.03 -0.365,0.045 -0.569,0.045 -0.161,0 -0.247,0.028 -0.247,0.13 0,0.103 0.102,0.132 0.32,0.132 0.393,0 0.815,-0.015 1.18,-0.015 C 0.408,4.195 0.742,4.18 0.946,4.18 c 0.466,0 3.365,0 3.641,0.015 0.276,0.029 0.51,0.057 0.627,0.087 C 5.287,4.297 5.374,4.34 5.446,4.34 5.52,4.34 5.533,4.282 5.533,4.209 5.533,4.107 5.462,3.933 5.418,3.263 5.402,3.117 5.374,2.476 5.345,2.301 5.331,2.228 5.301,2.141 5.199,2.141 5.097,2.141 5.068,2.214 5.068,2.345 5.068,2.447 5.054,2.694 4.98,2.869 4.878,3.131 4.732,3.306 4.005,3.394 3.758,3.422 2.229,3.452 1.937,3.452 1.864,3.452 1.835,3.408 1.835,3.306 l 0,-3.685 c 0,-0.101 0.014,-0.16 0.102,-0.16 0.321,0 1.995,0 2.331,0.029 0.347,0.03 0.567,0.073 0.698,0.219 0.102,0.116 0.16,0.189 0.233,0.189 0.058,0 0.102,-0.029 0.102,-0.116 0,-0.088 -0.059,-0.321 -0.116,-1.064 -0.015,-0.291 -0.059,-0.873 -0.059,-0.975 0,-0.117 0,-0.278 -0.131,-0.278 -0.101,0 -0.132,0.059 -0.132,0.132 -0.013,0.146 -0.013,0.335 -0.056,0.524 -0.075,0.292 -0.278,0.51 -0.816,0.568 -0.278,0.029 -1.719,0.044 -2.069,0.044 -0.073,0 -0.087,-0.058 -0.087,-0.146 l 0,-1.15 c 0,-0.496 -0.016,-1.835 0,-2.258 0.029,-1.005 0.262,-1.223 1.747,-1.223 0.379,0 0.99,0 1.369,0.174 0.38,0.175 0.554,0.481 0.656,1.078 0.029,0.16 0.057,0.219 0.16,0.219 0.117,0 0.117,-0.116 0.117,-0.262 0,-0.335 -0.117,-1.326 -0.19,-1.617 -0.101,-0.379 -0.232,-0.379 -0.787,-0.379 -1.093,0 -1.893,0.029 -2.519,0.044 -0.626,0.029 -1.077,0.044 -1.515,0.044 -0.16,0 -0.479,0 -0.83,-0.015 -0.335,0 -0.713,-0.029 -1.005,-0.029 -0.189,0 -0.292,0.044 -0.292,0.145 0,0.073 0.06,0.118 0.234,0.118 0.219,0 0.393,0.028 0.524,0.057 0.291,0.059 0.365,0.379 0.423,0.801 C 0,-5.054 0,-3.903 0,-2.563 L 0,0 z"
         style="fill:#ffffff;fill-opacity:1;fill-rule:nonzero;stroke:none"
         id="path4492"
         inkscape:connector-curvature="0" /></g><g
       id="g4494"
       transform="translate(114.2495,84.5625)"
       style="fill:#ffffff"><path
         d="m 0,0 c 0,-0.161 0.028,-0.219 0.131,-0.262 0.306,-0.102 0.743,-0.146 1.106,-0.146 0.583,0 0.773,0.058 1.034,0.247 C 2.708,0.16 3.13,0.83 3.13,2.024 3.13,4.092 1.762,4.689 0.902,4.689 0.539,4.689 0.276,4.675 0.131,4.631 0.028,4.602 0,4.544 0,4.427 L 0,0 z m -1.719,1.15 c 0,2.214 0,2.622 -0.029,3.088 -0.029,0.495 -0.147,0.728 -0.626,0.83 -0.117,0.029 -0.365,0.044 -0.568,0.044 -0.161,0 -0.247,0.029 -0.247,0.131 0,0.102 0.101,0.131 0.319,0.131 0.772,0 1.69,-0.044 1.995,-0.044 0.496,0 1.603,0.044 2.055,0.044 0.917,0 1.892,-0.087 2.679,-0.626 0.409,-0.277 0.99,-1.02 0.99,-1.996 0,-1.078 -0.451,-2.067 -1.921,-3.262 1.295,-1.631 2.3,-2.928 3.159,-3.83 0.816,-0.845 1.413,-0.947 1.632,-0.991 0.16,-0.029 0.291,-0.043 0.408,-0.043 0.116,0 0.174,-0.044 0.174,-0.117 0,-0.116 -0.102,-0.145 -0.277,-0.145 l -1.382,0 c -0.817,0 -1.181,0.073 -1.56,0.276 -0.627,0.335 -1.18,1.02 -1.995,2.141 -0.582,0.801 -1.253,1.791 -1.442,2.01 -0.072,0.087 -0.16,0.102 -0.262,0.102 L 0.116,-1.078 C 0.043,-1.078 0,-1.107 0,-1.194 l 0,-0.204 c 0,-1.355 0,-2.505 0.072,-3.117 0.044,-0.423 0.132,-0.743 0.569,-0.801 0.217,-0.03 0.539,-0.058 0.713,-0.058 0.117,0 0.174,-0.044 0.174,-0.117 0,-0.102 -0.101,-0.145 -0.291,-0.145 -0.843,0 -1.922,0.043 -2.14,0.043 -0.277,0 -1.195,-0.043 -1.777,-0.043 -0.19,0 -0.292,0.043 -0.292,0.145 0,0.073 0.059,0.117 0.233,0.117 0.219,0 0.393,0.028 0.524,0.058 0.292,0.058 0.365,0.378 0.423,0.801 0.073,0.612 0.073,1.762 0.073,3.102 l 0,2.563 z"
         style="fill:#ffffff;fill-opacity:1;fill-rule:nonzero;stroke:none"
         id="path4496"
         inkscape:connector-curvature="0" /></g><g
       id="g4498"
       transform="translate(124.8179,75.2524)"
       style="fill:#ffffff"><path
         d="m 0,0 -48.514,0 -48.513,0 0,0.765 48.513,0 L 0,0.765 0,0 z"
         style="fill:#ffffff;fill-opacity:1;fill-rule:nonzero;stroke:none"
         id="path4500"
         inkscape:connector-curvature="0" /></g><g
       id="g4502"
       transform="translate(28.0425,93.9526)"
       style="fill:#ffffff"><path
         d="m 0,0 48.262,0 48.261,0 0,-0.765 -48.261,0 L 0,-0.765 0,0 z"
         style="fill:#ffffff;fill-opacity:1;fill-rule:nonzero;stroke:none"
         id="path4504"
         inkscape:connector-curvature="0" /></g><g
       transform="scale(1,-1)"
       style="font-size:8.32887745000000024px;font-style:normal;font-weight:normal;line-height:125%;letter-spacing:0px;word-spacing:0px;fill:#ffffff;fill-opacity:1;stroke:none;font-family:Sans"
       id="text5302"><path
         d="m 30.388712,-69.70343 c 0,0.766256 0,1.424239 -0.04165,1.774051 -0.03331,0.241538 -0.07496,0.424773 -0.241537,0.458089 -0.07496,0.01666 -0.174907,0.03332 -0.29984,0.03332 -0.09995,0 -0.133262,0.02499 -0.133262,0.06663 0,0.0583 0.0583,0.08329 0.166578,0.08329 0.166577,0 0.383128,-0.01666 0.574692,-0.01666 0.199893,-0.0083 0.383129,-0.0083 0.474746,-0.0083 0.124933,0 0.3748,0.0083 0.624666,0.02499 0.241537,0.0083 0.483075,0.02499 0.583021,0.02499 1.532512,0 2.223811,-0.924507 2.223811,-1.815696 0,-0.974477 -0.832889,-1.565829 -1.515856,-1.799037 0.458088,-0.36647 0.849546,-0.774587 0.849546,-1.457554 0,-0.44143 -0.266526,-1.249331 -1.774051,-1.249331 -0.283182,0 -0.608009,0.02499 -1.016123,0.02499 -0.166578,0 -0.691298,-0.02499 -1.132728,-0.02499 -0.124933,0 -0.183235,0.01666 -0.183235,0.07496 0,0.0583 0.04997,0.07496 0.141591,0.07496 0.116604,0 0.258195,0.0083 0.324826,0.02499 0.274853,0.0583 0.341484,0.191564 0.358142,0.474746 0.01666,0.266524 0.01666,0.499734 0.01666,1.765722 l 0,1.465882 m 0.999465,-3.381524 c 0,-0.09162 0.01666,-0.124933 0.07496,-0.141591 0.08329,-0.01666 0.158249,-0.01666 0.274853,-0.01666 0.716282,0 1.041109,0.732941 1.041109,1.290976 0,0.408114 -0.124933,0.707954 -0.341484,0.882861 -0.14159,0.124933 -0.324826,0.158248 -0.599679,0.158248 -0.191564,0 -0.316497,-0.0083 -0.391457,-0.02499 -0.03332,-0.0083 -0.0583,-0.02499 -0.0583,-0.09162 l 0,-2.057233 m 1.907313,4.38099 c 0,0.866202 -0.632995,1.066096 -1.007794,1.066096 -0.191564,0 -0.383129,-0.0083 -0.608008,-0.09995 -0.266524,-0.108276 -0.291511,-0.249867 -0.291511,-0.799573 l 0,-1.973944 c 0,-0.04164 0.01666,-0.0583 0.04997,-0.0583 0.124933,0 0.208222,0 0.358142,0.0083 0.324826,0.01666 0.51639,0.07496 0.691297,0.199893 0.632994,0.44143 0.807901,1.141057 0.807901,1.657447"
         style="font-variant:normal;font-weight:bold;font-stretch:normal;fill:#ffffff;font-family:Trajan Pro;-inkscape-font-specification:Trajan Pro Bold"
         id="path3009" /><path
         d="m 37.907475,-69.070435 c 0.03332,0 0.0583,0.0083 0.07496,0.04997 l 0.566364,1.424238 c 0.03331,0.08329 -0.01666,0.14992 -0.06663,0.158249 -0.07496,0.0083 -0.09162,0.03332 -0.09162,0.07496 0,0.04997 0.08329,0.04997 0.216551,0.0583 0.616336,0.01666 1.149385,0.01666 1.40758,0.01666 0.274853,0 0.316498,-0.01666 0.316498,-0.07496 0,-0.04997 -0.03332,-0.07496 -0.09995,-0.07496 -0.08329,0 -0.166578,-0.0083 -0.274853,-0.02499 -0.133262,-0.02499 -0.341484,-0.116605 -0.624666,-0.757928 -0.466416,-1.074424 -1.690762,-3.972875 -1.865668,-4.364332 -0.07496,-0.158249 -0.108276,-0.22488 -0.216551,-0.22488 -0.07496,0 -0.133262,0.08329 -0.216551,0.283182 l -1.915642,4.455949 c -0.149919,0.358142 -0.274853,0.574693 -0.608008,0.624666 -0.06663,0 -0.14992,0.0083 -0.216551,0.0083 -0.0583,0 -0.08329,0.03332 -0.08329,0.07496 0,0.0583 0.04164,0.07496 0.133262,0.07496 0.383128,0 0.774585,-0.02499 0.849545,-0.02499 0.233209,0 0.574693,0.02499 0.81623,0.02499 0.07496,0 0.116605,-0.01666 0.116605,-0.07496 0,-0.04164 -0.01666,-0.07496 -0.108276,-0.07496 l -0.108275,0 c -0.22488,0 -0.291511,-0.07496 -0.291511,-0.199893 0,-0.08329 0.03332,-0.258195 0.108275,-0.433102 l 0.391458,-0.949492 c 0.01666,-0.04164 0.02499,-0.04997 0.06663,-0.04997 l 1.724077,0 m -1.574158,-0.391457 c -0.02499,0 -0.04164,-0.01666 -0.02499,-0.04997 l 0.707954,-1.790709 c 0.0083,-0.02499 0.01666,-0.06663 0.04164,-0.06663 0.01666,0 0.02499,0.04164 0.03332,0.06663 l 0.691297,1.799038 c 0.0083,0.02499 0,0.04164 -0.03332,0.04164 l -1.41591,0"
         style="font-variant:normal;font-weight:bold;font-stretch:normal;fill:#ffffff;font-family:Trajan Pro;-inkscape-font-specification:Trajan Pro Bold"
         id="path3011" /><path
         d="m 41.137518,-69.345288 c 0,0.649652 0,1.207688 -0.03332,1.507527 -0.02499,0.208222 -0.06663,0.341484 -0.216551,0.3748 -0.06663,0.01666 -0.14992,0.02499 -0.258195,0.02499 -0.09162,0 -0.116605,0.04164 -0.116605,0.07496 0,0.04997 0.04997,0.07496 0.141591,0.07496 0.291511,0 0.757928,-0.02499 0.899519,-0.02499 0.108275,0 0.716284,0.02499 1.141056,0.02499 0.09162,0 0.14992,-0.02499 0.14992,-0.07496 0,-0.03332 -0.03332,-0.07496 -0.09162,-0.07496 -0.09162,0 -0.249867,-0.0083 -0.358142,-0.02499 -0.22488,-0.03332 -0.258195,-0.166578 -0.283182,-0.3748 -0.03332,-0.299839 -0.04164,-0.849546 -0.04164,-1.507527 l 0,-0.09995 c 0,-0.04165 0.02499,-0.0583 0.0583,-0.0583 l 0.657981,0.01666 c 0.04997,0 0.09162,0.0083 0.133262,0.04997 0.09162,0.108275 0.399786,0.583021 0.691297,0.966149 0.408114,0.549706 0.682968,0.882862 0.999465,1.04111 0.191564,0.09995 0.391458,0.141591 0.799572,0.141591 l 0.699626,0 c 0.09162,0 0.141591,-0.01666 0.141591,-0.07496 0,-0.03332 -0.03332,-0.07496 -0.09162,-0.07496 -0.0583,0 -0.09995,0 -0.174906,-0.01666 -0.116604,-0.02499 -0.3748,-0.0583 -0.782915,-0.466417 -0.44143,-0.44143 -0.957821,-1.082755 -1.607473,-1.882326 0.716283,-0.574692 1.016123,-1.04111 1.016123,-1.565829 0,-0.474746 -0.308168,-0.832888 -0.51639,-0.974479 -0.391457,-0.258195 -0.924506,-0.299839 -1.390923,-0.299839 -0.224879,0 -0.89119,0.01666 -1.141056,0.01666 -0.14992,0 -0.616337,-0.01666 -0.999465,-0.01666 -0.108276,0 -0.166578,0.01666 -0.166578,0.06663 0,0.04997 0.04997,0.07496 0.124933,0.07496 0.108276,0 0.233209,0.0083 0.291511,0.02499 0.233208,0.06663 0.29984,0.141591 0.316497,0.383129 0.0083,0.224879 0.0083,0.424773 0.0083,1.499198 l 0,1.249331 m 0.932835,-2.806831 c 0,-0.0583 0.01666,-0.08329 0.06663,-0.09995 0.07496,-0.01666 0.249866,-0.02499 0.433101,-0.02499 0.433101,0 1.11607,0.258197 1.11607,1.257661 0,0.583021 -0.249867,0.89119 -0.474746,1.049438 -0.124933,0.09162 -0.22488,0.116605 -0.516391,0.116605 -0.183235,0 -0.399786,-0.01666 -0.558034,-0.06663 -0.04997,-0.02499 -0.06663,-0.04997 -0.06663,-0.124933 l 0,-2.107206"
         style="font-variant:normal;font-weight:bold;font-stretch:normal;fill:#ffffff;font-family:Trajan Pro;-inkscape-font-specification:Trajan Pro Bold"
         id="path3013" /><path
         d="m 49.544088,-70.544646 c 0,0.324826 -0.02499,0.499733 -0.108275,0.749599 -0.01666,0.0583 -0.04997,0.14992 -0.04997,0.183235 0,0.03332 0.02499,0.04997 0.04997,0.04997 0.04164,0 0.116604,-0.07496 0.183235,-0.124933 0.391457,-0.358141 0.774586,-0.699626 1.049439,-1.10774 0.02499,-0.04165 0.06663,-0.141591 0.06663,-0.191565 0,-0.03332 0,-0.07496 -0.03332,-0.09995 -0.02499,-0.02499 -0.09995,-0.0583 -0.308168,-0.108276 -0.283182,-0.0583 -1.04111,-0.183235 -1.149385,-0.183235 -0.124933,0 -0.166578,0.01666 -0.166578,0.08329 0,0.04164 0.0583,0.0583 0.133262,0.09995 0.116604,0.04997 0.333155,0.233209 0.333155,0.649653"
         style="font-variant:normal;font-weight:bold;font-stretch:normal;fill:#ffffff;font-family:Trajan Pro;-inkscape-font-specification:Trajan Pro Bold"
         id="path3015" /><path
         d="m 58.568558,-67.171451 c 0.533048,0 1.166044,-0.0583 1.499198,-0.191564 0.141591,-0.0583 0.174907,-0.09995 0.216551,-0.241537 0.08329,-0.283182 0.183235,-1.007795 0.183235,-1.107741 0,-0.06663 -0.01666,-0.124933 -0.07496,-0.124933 -0.06663,0 -0.08329,0.03332 -0.108276,0.166577 -0.03332,0.14992 -0.141591,0.391458 -0.283182,0.549706 -0.333154,0.383128 -0.782915,0.466417 -1.524184,0.466417 -1.116069,0 -2.623597,-0.982809 -2.623597,-2.96508 0,-0.8079 0.15825,-1.599145 0.766257,-2.157179 0.36647,-0.333155 0.841217,-0.516391 1.565829,-0.516391 0.766256,0 1.415909,0.22488 1.690762,0.516391 0.208222,0.21655 0.316497,0.508061 0.324826,0.766256 0,0.116605 0.01666,0.183236 0.08329,0.183236 0.07496,0 0.09162,-0.06663 0.09995,-0.191564 0.01666,-0.166578 0.0083,-0.624667 0.02499,-0.899519 0.01666,-0.291511 0.04165,-0.391458 0.04165,-0.458088 0,-0.04997 -0.03332,-0.09162 -0.124934,-0.09995 -0.249866,-0.02499 -0.51639,-0.09995 -0.832887,-0.141591 -0.383128,-0.04997 -0.691298,-0.08329 -1.207687,-0.08329 -1.241002,0 -2.032247,0.333156 -2.631926,0.882861 -0.799571,0.732941 -0.974478,1.71575 -0.974478,2.282113 0,0.8079 0.216551,1.740736 1.03278,2.457019 0.757927,0.65798 1.71575,0.907847 2.856805,0.907847"
         style="font-variant:normal;font-weight:bold;font-stretch:normal;fill:#ffffff;font-family:Trajan Pro;-inkscape-font-specification:Trajan Pro Bold"
         id="path3017" /><path
         d="m 64.374434,-69.070435 c 0.03332,0 0.0583,0.0083 0.07496,0.04997 l 0.566363,1.424238 c 0.03332,0.08329 -0.01666,0.14992 -0.06663,0.158249 -0.07496,0.0083 -0.09162,0.03332 -0.09162,0.07496 0,0.04997 0.08329,0.04997 0.216551,0.0583 0.616336,0.01666 1.149385,0.01666 1.40758,0.01666 0.274853,0 0.316497,-0.01666 0.316497,-0.07496 0,-0.04997 -0.03332,-0.07496 -0.09995,-0.07496 -0.08329,0 -0.166578,-0.0083 -0.274853,-0.02499 -0.133262,-0.02499 -0.341485,-0.116605 -0.624666,-0.757928 -0.466417,-1.074424 -1.690762,-3.972875 -1.865669,-4.364332 -0.07496,-0.158249 -0.108275,-0.22488 -0.21655,-0.22488 -0.07496,0 -0.133263,0.08329 -0.216551,0.283182 l -1.915642,4.455949 c -0.14992,0.358142 -0.274853,0.574693 -0.608008,0.624666 -0.06663,0 -0.14992,0.0083 -0.216551,0.0083 -0.0583,0 -0.08329,0.03332 -0.08329,0.07496 0,0.0583 0.04165,0.07496 0.133262,0.07496 0.383128,0 0.774586,-0.02499 0.849546,-0.02499 0.233208,0 0.574693,0.02499 0.81623,0.02499 0.07496,0 0.116604,-0.01666 0.116604,-0.07496 0,-0.04164 -0.01666,-0.07496 -0.108275,-0.07496 l -0.108276,0 c -0.224879,0 -0.29151,-0.07496 -0.29151,-0.199893 0,-0.08329 0.03332,-0.258195 0.108275,-0.433102 l 0.391457,-0.949492 c 0.01666,-0.04164 0.02499,-0.04997 0.06663,-0.04997 l 1.724078,0 m -1.574158,-0.391457 c -0.02499,0 -0.04164,-0.01666 -0.02499,-0.04997 l 0.707955,-1.790709 c 0.0083,-0.02499 0.01666,-0.06663 0.04164,-0.06663 0.01666,0 0.02499,0.04164 0.03332,0.06663 l 0.691297,1.799038 c 0.0083,0.02499 0,0.04164 -0.03332,0.04164 l -1.415909,0"
         style="font-variant:normal;font-weight:bold;font-stretch:normal;fill:#ffffff;font-family:Trajan Pro;-inkscape-font-specification:Trajan Pro Bold"
         id="path3019" /><path
         d="m 68.587285,-69.903323 c 0,-0.04997 0.01666,-0.0583 0.04997,-0.0583 0.124933,0 0.991137,0.0083 1.174372,0.02499 0.224879,0.01666 0.316497,0.158249 0.349813,0.258195 0.03331,0.08329 0.04997,0.166578 0.04997,0.216551 0,0.04997 0.02499,0.09995 0.06663,0.09995 0.07496,0 0.08329,-0.09995 0.08329,-0.158248 0,-0.04997 0.0083,-0.3748 0.02499,-0.516391 0.02499,-0.224879 0.0583,-0.416444 0.0583,-0.458088 0,-0.04164 -0.01666,-0.06663 -0.04165,-0.06663 -0.04164,0 -0.0583,0.03332 -0.09995,0.07496 -0.06663,0.09162 -0.174907,0.116604 -0.308169,0.124933 -0.108275,0.0083 -0.208222,0.0083 -0.333155,0.0083 l -1.024452,0.0083 c -0.04164,0 -0.04997,-0.02499 -0.04997,-0.06663 l 0,-1.715749 c 0,-0.08329 0.02499,-0.09995 0.06663,-0.09995 l 1.216016,0.02499 c 0.274853,0.0083 0.416444,0.116605 0.466417,0.216551 0.04997,0.09995 0.04164,0.208222 0.04164,0.266524 0,0.08329 0.04165,0.116604 0.09162,0.116604 0.04997,0 0.06663,-0.08329 0.07496,-0.14159 0.0083,-0.08329 0.02499,-0.499733 0.03332,-0.574693 0.02499,-0.183235 0.0583,-0.266524 0.0583,-0.316497 0,-0.03332 -0.02499,-0.06663 -0.04997,-0.06663 -0.04164,0 -0.07496,0.03332 -0.116604,0.04164 -0.07496,0.01666 -0.166578,0.02499 -0.299839,0.03332 -0.174907,0.0083 -1.799038,0 -2.08222,0 -0.208222,0 -0.674639,-0.01666 -1.049438,-0.01666 -0.116605,0 -0.174907,0.01666 -0.174907,0.06663 0,0.04997 0.0583,0.07496 0.124933,0.07496 0.108276,0 0.233209,0.0083 0.291511,0.02499 0.233208,0.0583 0.29984,0.141591 0.316497,0.383129 0.0083,0.224879 0.0083,0.424773 0.0083,1.499198 l 0,1.249331 c 0,0.682967 0,1.207688 -0.03332,1.507527 -0.02499,0.208222 -0.06663,0.341484 -0.216551,0.3748 -0.06663,0.01666 -0.14992,0.02499 -0.258195,0.02499 -0.08329,0 -0.108276,0.04164 -0.108276,0.07496 0,0.0583 0.04997,0.07496 0.14992,0.07496 0.274853,0 0.74127,-0.02499 0.932834,-0.02499 0.191564,0 0.707955,0.02499 1.174372,0.02499 0.108275,0 0.158249,-0.02499 0.158249,-0.07496 0,-0.03332 -0.03332,-0.07496 -0.124933,-0.07496 -0.09995,0 -0.258196,-0.0083 -0.358142,-0.02499 -0.216551,-0.03332 -0.266524,-0.166578 -0.291511,-0.3748 -0.03332,-0.299839 -0.04164,-0.799573 -0.04164,-1.48254 l 0,-0.583022"
         style="font-variant:normal;font-weight:bold;font-stretch:normal;fill:#ffffff;font-family:Trajan Pro;-inkscape-font-specification:Trajan Pro Bold"
         id="path3021" /><path
         d="m 72.159333,-69.345288 c 0,0.649652 0,1.207688 -0.03332,1.507527 -0.02499,0.208222 -0.06663,0.341484 -0.216551,0.3748 -0.06663,0.01666 -0.14992,0.02499 -0.258195,0.02499 -0.09162,0 -0.116604,0.04164 -0.116604,0.07496 0,0.04997 0.04997,0.07496 0.141591,0.07496 0.149919,0 0.333155,-0.0083 0.508061,-0.01666 0.174907,0 0.333155,-0.0083 0.416444,-0.0083 0.216551,0 0.491404,0.0083 0.849546,0.01666 0.358141,0.01666 0.799572,0.02499 1.349278,0.02499 0.274852,0 0.341484,0 0.391457,-0.183236 0.04164,-0.14159 0.09995,-0.624666 0.09995,-0.782914 0,-0.07496 -0.0083,-0.166578 -0.06663,-0.166578 -0.04997,0 -0.06663,0.03332 -0.08329,0.108276 -0.04997,0.29151 -0.133262,0.44143 -0.316498,0.524719 -0.191564,0.08329 -0.499732,0.09162 -0.691296,0.09162 -0.749599,0 -0.974479,-0.108276 -0.991137,-0.591351 -0.0083,-0.208221 0,-0.807901 0,-1.049438 l 0,-0.566364 c 0,-0.04164 0.0083,-0.07496 0.04165,-0.07496 0.183235,0 1.016123,0.01666 1.149385,0.03332 0.274852,0.02499 0.36647,0.133262 0.408115,0.274853 0.01666,0.09162 0.01666,0.183235 0.02499,0.258195 0,0.03332 0.01666,0.0583 0.06663,0.0583 0.06663,0 0.07496,-0.09995 0.07496,-0.158249 0,-0.04997 0.01666,-0.333155 0.03332,-0.474746 0.04164,-0.358141 0.0583,-0.474746 0.0583,-0.51639 0,-0.04164 -0.02499,-0.07496 -0.0583,-0.07496 -0.03332,0 -0.0583,0.04165 -0.116605,0.09162 -0.06663,0.07496 -0.174906,0.09162 -0.349812,0.108275 -0.166578,0.01666 -1.11607,0.01666 -1.282648,0.01666 -0.04164,0 -0.04997,-0.03332 -0.04997,-0.07496 l 0,-1.749064 c 0,-0.04164 0.01666,-0.06663 0.04997,-0.06663 0.14992,0 1.024452,0.01666 1.149386,0.03332 0.36647,0.03332 0.424772,0.133262 0.483074,0.258195 0.04165,0.08329 0.04997,0.208222 0.04997,0.258196 0,0.0583 0.0083,0.09162 0.0583,0.09162 0.0583,0 0.07496,-0.08329 0.08329,-0.116604 0.01666,-0.08329 0.03332,-0.391457 0.04164,-0.466417 0.01666,-0.324826 0.0583,-0.408115 0.0583,-0.458088 0,-0.03332 -0.0083,-0.06663 -0.04997,-0.06663 -0.03332,0 -0.07496,0.02499 -0.116604,0.03332 -0.0583,0.0083 -0.174907,0.03332 -0.308169,0.04165 -0.141591,0.0083 -1.765722,0 -1.99893,0 -0.208222,0 -0.67464,-0.01666 -1.057768,-0.01666 -0.108275,0 -0.166577,0.01666 -0.166577,0.06663 0,0.04997 0.04997,0.07496 0.124933,0.07496 0.108275,0 0.233208,0.0083 0.29151,0.02499 0.233209,0.06663 0.29984,0.141591 0.316498,0.383129 0.0083,0.224879 0.0083,0.424773 0.0083,1.499198 l 0,1.249331 m 2.340414,-5.130588 c -0.04164,-0.07496 -0.0583,-0.09995 -0.116604,-0.09995 -0.02499,0 -0.08329,0.01666 -0.166578,0.07496 -0.133262,0.08329 -1.007794,0.732942 -1.340949,1.049439 -0.04164,0.04164 -0.07496,0.07496 -0.07496,0.108275 0,0.03332 0.03332,0.04997 0.04997,0.04997 0.01666,0 0.07496,-0.03332 0.141591,-0.06663 0.308169,-0.166577 0.966151,-0.433101 1.424238,-0.491403 0.166578,-0.01666 0.241538,0 0.283182,0 0.04165,0 0.09162,-0.02499 0.04165,-0.124934 -0.09995,-0.224879 -0.174907,-0.383128 -0.241538,-0.499732"
         style="font-variant:normal;font-weight:bold;font-stretch:normal;fill:#ffffff;font-family:Trajan Pro;-inkscape-font-specification:Trajan Pro Bold"
         id="path3023" /><path
         d="m 79.654932,-70.544646 c 0,0.324826 -0.02499,0.499733 -0.108275,0.749599 -0.01666,0.0583 -0.04997,0.14992 -0.04997,0.183235 0,0.03332 0.02499,0.04997 0.04997,0.04997 0.04164,0 0.116604,-0.07496 0.183235,-0.124933 0.391457,-0.358141 0.774586,-0.699626 1.049438,-1.10774 0.02499,-0.04165 0.06663,-0.141591 0.06663,-0.191565 0,-0.03332 0,-0.07496 -0.03332,-0.09995 -0.02499,-0.02499 -0.09995,-0.0583 -0.308168,-0.108276 -0.283182,-0.0583 -1.04111,-0.183235 -1.149386,-0.183235 -0.124933,0 -0.166577,0.01666 -0.166577,0.08329 0,0.04164 0.0583,0.0583 0.133262,0.09995 0.116604,0.04997 0.333155,0.233209 0.333155,0.649653"
         style="font-variant:normal;font-weight:bold;font-stretch:normal;fill:#ffffff;font-family:Trajan Pro;-inkscape-font-specification:Trajan Pro Bold"
         id="path3025" /><path
         d="m 86.805405,-69.70343 c 0,0.766256 0,1.424239 -0.04164,1.774051 -0.02499,0.241538 -0.07496,0.424773 -0.241537,0.458089 -0.07496,0.01666 -0.174907,0.03332 -0.29984,0.03332 -0.09995,0 -0.133262,0.02499 -0.133262,0.06663 0,0.0583 0.0583,0.08329 0.166578,0.08329 0.333154,0 0.857874,-0.02499 1.049438,-0.02499 0.233209,0 0.757929,0.02499 1.307634,0.02499 0.09162,0 0.158249,-0.02499 0.158249,-0.08329 0,-0.04164 -0.04164,-0.06663 -0.133262,-0.06663 -0.124933,0 -0.308169,-0.01666 -0.424773,-0.03332 -0.249866,-0.03332 -0.29984,-0.216551 -0.324826,-0.44976 -0.04165,-0.358141 -0.04165,-1.016124 -0.04165,-1.78238 l 0,-3.414839 1.049439,0.02499 c 0.741269,0.01666 0.96615,0.249867 0.982807,0.466418 l 0.0083,0.09162 c 0.0083,0.124933 0.02499,0.166578 0.09162,0.166578 0.04997,0 0.06663,-0.04997 0.07496,-0.133262 0,-0.216551 0.02499,-0.791244 0.02499,-0.96615 0,-0.124933 -0.0083,-0.174907 -0.06663,-0.174907 -0.03332,0 -0.09995,0.01666 -0.224879,0.04165 -0.124933,0.01666 -0.308169,0.04164 -0.574693,0.04164 l -3.298235,0 c -0.274853,0 -0.591351,-0.01666 -0.832888,-0.04164 -0.208222,-0.01666 -0.291511,-0.09995 -0.358142,-0.09995 -0.04997,0 -0.07496,0.04997 -0.09995,0.158249 -0.01666,0.06663 -0.174907,0.824559 -0.174907,0.957821 0,0.09162 0.01666,0.133262 0.07496,0.133262 0.04997,0 0.07496,-0.03332 0.09162,-0.09995 0.01666,-0.06663 0.0583,-0.166577 0.141591,-0.29151 0.124933,-0.183235 0.324826,-0.22488 0.807901,-0.241538 l 1.241003,-0.03332 0,3.414839"
         style="font-variant:normal;font-weight:bold;font-stretch:normal;fill:#ffffff;font-family:Trajan Pro;-inkscape-font-specification:Trajan Pro Bold"
         id="path3027" /><path
         d="m 92.485178,-70.336424 c -0.02499,0 -0.04997,-0.0083 -0.04997,-0.04997 l 0,-0.14992 c 0,-1.074424 0,-1.332621 0.01666,-1.5575 0.01666,-0.249866 0.07496,-0.349813 0.274853,-0.383129 0.08329,-0.01666 0.14992,-0.02499 0.208222,-0.02499 0.09162,0 0.133262,-0.02499 0.133262,-0.07496 0,-0.04997 -0.04997,-0.06663 -0.14992,-0.06663 -0.29151,0 -0.799572,0.01666 -0.974478,0.01666 -0.199893,0 -0.682969,-0.01666 -1.074426,-0.01666 -0.09995,0 -0.158248,0.01666 -0.158248,0.06663 0,0.04997 0.04997,0.07496 0.124933,0.07496 0.108275,0 0.233208,0.0083 0.291511,0.02499 0.233208,0.06663 0.299839,0.141591 0.316497,0.383129 0.0083,0.224879 0.0083,0.424773 0.0083,1.499198 l 0,1.249331 c 0,0.649652 0,1.207688 -0.03332,1.507527 -0.02499,0.208222 -0.06663,0.341484 -0.216551,0.3748 -0.06663,0.01666 -0.149919,0.02499 -0.258195,0.02499 -0.09162,0 -0.116604,0.04164 -0.116604,0.07496 0,0.04997 0.04997,0.07496 0.141591,0.07496 0.29151,0 0.774586,-0.02499 0.941163,-0.02499 0.208222,0 0.716284,0.02499 1.191029,0.02499 0.09162,0 0.14992,-0.02499 0.14992,-0.07496 0,-0.03332 -0.03332,-0.07496 -0.116604,-0.07496 -0.108275,0 -0.274853,-0.0083 -0.374799,-0.02499 -0.216551,-0.03332 -0.258196,-0.166578 -0.283182,-0.366471 -0.03332,-0.308168 -0.04165,-0.849546 -0.04165,-1.499198 l 0,-0.541377 c 0,-0.03332 0.02499,-0.04164 0.04997,-0.04164 l 2.765187,0 c 0.01666,0 0.04164,0.01666 0.04164,0.04164 l 0,0.541377 c 0,0.649652 0,1.19103 -0.03331,1.490869 -0.02499,0.208222 -0.06663,0.341484 -0.216551,0.3748 -0.06663,0.01666 -0.14992,0.02499 -0.266524,0.02499 -0.08329,0 -0.116604,0.04164 -0.116604,0.07496 0,0.04997 0.0583,0.07496 0.158248,0.07496 0.283182,0 0.799573,-0.02499 0.96615,-0.02499 0.199893,0 0.682968,0.02499 1.157714,0.02499 0.09162,0 0.14992,-0.02499 0.14992,-0.07496 0,-0.03332 -0.04165,-0.07496 -0.116604,-0.07496 -0.116605,0 -0.274854,-0.0083 -0.3748,-0.02499 -0.224879,-0.03332 -0.266524,-0.166578 -0.291511,-0.366471 -0.03332,-0.308168 -0.03332,-0.866204 -0.03332,-1.515856 l 0,-1.249331 c 0,-1.074425 0,-1.274319 0.01666,-1.499198 0.01666,-0.249866 0.07496,-0.349813 0.266524,-0.383129 0.09162,-0.01666 0.158248,-0.02499 0.21655,-0.02499 0.08329,0 0.133262,-0.02499 0.133262,-0.07496 0,-0.04997 -0.04997,-0.06663 -0.158248,-0.06663 -0.283182,0 -0.766257,0.01666 -0.941163,0.01666 -0.191564,0 -0.707955,-0.01666 -1.099412,-0.01666 -0.108275,0 -0.158249,0.01666 -0.158249,0.06663 0,0.04997 0.04165,0.07496 0.124933,0.07496 0.09995,0 0.22488,0.0083 0.283182,0.02499 0.233209,0.06663 0.29984,0.141591 0.316498,0.383129 0.0083,0.224879 0.01666,0.483076 0.01666,1.5575 l 0,0.14992 c 0,0.04164 -0.02499,0.04997 -0.04164,0.04997 l -2.765187,0"
         style="font-variant:normal;font-weight:bold;font-stretch:normal;fill:#ffffff;font-family:Trajan Pro;-inkscape-font-specification:Trajan Pro Bold"
         id="path3029" /><path
         d="m 98.675099,-69.345288 c 0,0.649652 0,1.207688 -0.03332,1.507527 -0.02499,0.208222 -0.06663,0.341484 -0.216551,0.3748 -0.06663,0.01666 -0.149919,0.02499 -0.258195,0.02499 -0.09162,0 -0.116604,0.04164 -0.116604,0.07496 0,0.04997 0.04997,0.07496 0.141591,0.07496 0.14992,0 0.333155,-0.0083 0.508061,-0.01666 0.174907,0 0.333156,-0.0083 0.416444,-0.0083 0.216551,0 0.491404,0.0083 0.849546,0.01666 0.358145,0.01666 0.799575,0.02499 1.349275,0.02499 0.27486,0 0.34149,0 0.39146,-0.183236 0.0416,-0.14159 0.0999,-0.624666 0.0999,-0.782914 0,-0.07496 -0.008,-0.166578 -0.0666,-0.166578 -0.05,0 -0.0666,0.03332 -0.0833,0.108276 -0.05,0.29151 -0.13327,0.44143 -0.3165,0.524719 -0.19156,0.08329 -0.49973,0.09162 -0.6913,0.09162 -0.749595,0 -0.974476,-0.108276 -0.991134,-0.591351 -0.0083,-0.208221 0,-0.807901 0,-1.049438 l 0,-0.566364 c 0,-0.04164 0.0083,-0.07496 0.04165,-0.07496 0.183235,0 1.016119,0.01666 1.149389,0.03332 0.27485,0.02499 0.36647,0.133262 0.40811,0.274853 0.0167,0.09162 0.0167,0.183235 0.025,0.258195 0,0.03332 0.0167,0.0583 0.0666,0.0583 0.0666,0 0.075,-0.09995 0.075,-0.158249 0,-0.04997 0.0167,-0.333155 0.0333,-0.474746 0.0416,-0.358141 0.0583,-0.474746 0.0583,-0.51639 0,-0.04164 -0.025,-0.07496 -0.0583,-0.07496 -0.0333,0 -0.0583,0.04165 -0.1166,0.09162 -0.0666,0.07496 -0.17491,0.09162 -0.34981,0.108275 -0.16658,0.01666 -1.116073,0.01666 -1.28265,0.01666 -0.04165,0 -0.04997,-0.03332 -0.04997,-0.07496 l 0,-1.749064 c 0,-0.04164 0.01666,-0.06663 0.04997,-0.06663 0.149919,0 1.02445,0.01666 1.14938,0.03332 0.36647,0.03332 0.42478,0.133262 0.48308,0.258195 0.0416,0.08329 0.05,0.208222 0.05,0.258196 0,0.0583 0.008,0.09162 0.0583,0.09162 0.0583,0 0.075,-0.08329 0.0833,-0.116604 0.0167,-0.08329 0.0333,-0.391457 0.0417,-0.466417 0.0167,-0.324826 0.0583,-0.408115 0.0583,-0.458088 0,-0.03332 -0.008,-0.06663 -0.05,-0.06663 -0.0333,0 -0.075,0.02499 -0.11661,0.03332 -0.0583,0.0083 -0.1749,0.03332 -0.30817,0.04165 -0.14159,0.0083 -1.765718,0 -1.998926,0 -0.208222,0 -0.67464,-0.01666 -1.057768,-0.01666 -0.108275,0 -0.166577,0.01666 -0.166577,0.06663 0,0.04997 0.04997,0.07496 0.124933,0.07496 0.108275,0 0.233208,0.0083 0.291511,0.02499 0.233208,0.06663 0.299839,0.141591 0.316497,0.383129 0.0083,0.224879 0.0083,0.424773 0.0083,1.499198 l 0,1.249331"
         style="font-variant:normal;font-weight:bold;font-stretch:normal;fill:#ffffff;font-family:Trajan Pro;-inkscape-font-specification:Trajan Pro Bold"
         id="path3031" /><path
         d="m 105.51453,-69.070435 c 0.0333,0 0.0583,0.0083 0.075,0.04997 l 0.56637,1.424238 c 0.0333,0.08329 -0.0167,0.14992 -0.0666,0.158249 -0.075,0.0083 -0.0916,0.03332 -0.0916,0.07496 0,0.04997 0.0833,0.04997 0.21655,0.0583 0.61633,0.01666 1.14938,0.01666 1.40758,0.01666 0.27485,0 0.3165,-0.01666 0.3165,-0.07496 0,-0.04997 -0.0333,-0.07496 -0.0999,-0.07496 -0.0833,0 -0.16658,-0.0083 -0.27485,-0.02499 -0.13327,-0.02499 -0.34149,-0.116605 -0.62467,-0.757928 -0.46642,-1.074424 -1.69076,-3.972875 -1.86567,-4.364332 -0.075,-0.158249 -0.10827,-0.22488 -0.21655,-0.22488 -0.075,0 -0.13326,0.08329 -0.21655,0.283182 l -1.91564,4.455949 c -0.14992,0.358142 -0.27485,0.574693 -0.60801,0.624666 -0.0666,0 -0.14992,0.0083 -0.21655,0.0083 -0.0583,0 -0.0833,0.03332 -0.0833,0.07496 0,0.0583 0.0417,0.07496 0.13326,0.07496 0.38313,0 0.77459,-0.02499 0.84955,-0.02499 0.23321,0 0.57469,0.02499 0.81623,0.02499 0.075,0 0.1166,-0.01666 0.1166,-0.07496 0,-0.04164 -0.0167,-0.07496 -0.10827,-0.07496 l -0.10828,0 c -0.22488,0 -0.29151,-0.07496 -0.29151,-0.199893 0,-0.08329 0.0333,-0.258195 0.10828,-0.433102 l 0.39145,-0.949492 c 0.0167,-0.04164 0.025,-0.04997 0.0666,-0.04997 l 1.72408,0 m -1.57416,-0.391457 c -0.025,0 -0.0416,-0.01666 -0.025,-0.04997 l 0.70795,-1.790709 c 0.008,-0.02499 0.0167,-0.06663 0.0417,-0.06663 0.0166,0 0.025,0.04164 0.0333,0.06663 l 0.6913,1.799038 c 0.008,0.02499 0,0.04164 -0.0333,0.04164 l -1.41591,0"
         style="font-variant:normal;font-weight:bold;font-stretch:normal;fill:#ffffff;font-family:Trajan Pro;-inkscape-font-specification:Trajan Pro Bold"
         id="path3033" /><path
         d="m 109.18223,-69.345288 c 0,0.649652 0,1.207688 -0.0333,1.507527 -0.025,0.208222 -0.0666,0.341484 -0.21656,0.3748 -0.0583,0.01666 -0.14991,0.02499 -0.25819,0.02499 -0.0916,0 -0.1166,0.04164 -0.1166,0.07496 0,0.04997 0.05,0.07496 0.14159,0.07496 0.29151,0 0.79124,-0.02499 0.95782,-0.02499 0.20822,0 0.69962,0.02499 1.1827,0.02499 0.0833,0 0.14159,-0.02499 0.14159,-0.07496 0,-0.03332 -0.0333,-0.07496 -0.11661,-0.07496 -0.10827,0 -0.27485,-0.0083 -0.37479,-0.02499 -0.21656,-0.03332 -0.2582,-0.166578 -0.28319,-0.366471 -0.0333,-0.308168 -0.0416,-0.866204 -0.0416,-1.515856 l 0,-2.865134 0.9245,0.01666 c 0.65798,0.0083 0.84955,0.22488 0.86621,0.408115 l 0.008,0.07496 c 0.008,0.108275 0.025,0.141591 0.0833,0.141591 0.0416,0 0.0583,-0.04165 0.0666,-0.116604 0,-0.183235 0.0166,-0.707955 0.0166,-0.857875 0,-0.108275 -0.008,-0.14992 -0.0583,-0.14992 -0.025,0 -0.0833,0.01666 -0.19989,0.03332 -0.10828,0.01666 -0.26653,0.03332 -0.49973,0.03332 l -2.97341,0 c -0.24154,0 -0.51639,-0.0083 -0.73294,-0.03332 -0.18324,-0.02499 -0.2582,-0.08329 -0.3165,-0.08329 -0.0417,0 -0.0666,0.04165 -0.0833,0.133262 -0.0167,0.0583 -0.15825,0.74127 -0.15825,0.857875 0,0.07496 0.0167,0.116604 0.0666,0.116604 0.05,0 0.0666,-0.03332 0.0833,-0.09162 0.0167,-0.04997 0.05,-0.141591 0.12493,-0.241537 0.10828,-0.158249 0.28319,-0.208222 0.70796,-0.216551 l 1.09108,-0.02499 0,2.865134"
         style="font-variant:normal;font-weight:bold;font-stretch:normal;fill:#ffffff;font-family:Trajan Pro;-inkscape-font-specification:Trajan Pro Bold"
         id="path3035" /><path
         d="m 113.47837,-69.345288 c 0,0.649652 0,1.207688 -0.0333,1.507527 -0.025,0.208222 -0.0666,0.341484 -0.21655,0.3748 -0.0666,0.01666 -0.14992,0.02499 -0.2582,0.02499 -0.0916,0 -0.1166,0.04164 -0.1166,0.07496 0,0.04997 0.05,0.07496 0.14159,0.07496 0.29151,0 0.75793,-0.02499 0.89952,-0.02499 0.10827,0 0.71628,0.02499 1.14105,0.02499 0.0916,0 0.14992,-0.02499 0.14992,-0.07496 0,-0.03332 -0.0333,-0.07496 -0.0916,-0.07496 -0.0916,0 -0.24987,-0.0083 -0.35814,-0.02499 -0.22488,-0.03332 -0.2582,-0.166578 -0.28319,-0.3748 -0.0333,-0.299839 -0.0416,-0.849546 -0.0416,-1.507527 l 0,-0.09995 c 0,-0.04165 0.025,-0.0583 0.0583,-0.0583 l 0.65798,0.01666 c 0.05,0 0.0916,0.0083 0.13326,0.04997 0.0916,0.108275 0.39979,0.583021 0.6913,0.966149 0.40812,0.549706 0.68297,0.882862 0.99947,1.04111 0.19156,0.09995 0.39145,0.141591 0.79957,0.141591 l 0.69962,0 c 0.0916,0 0.1416,-0.01666 0.1416,-0.07496 0,-0.03332 -0.0333,-0.07496 -0.0916,-0.07496 -0.0583,0 -0.1,0 -0.17491,-0.01666 -0.1166,-0.02499 -0.3748,-0.0583 -0.78291,-0.466417 -0.44143,-0.44143 -0.95782,-1.082755 -1.60748,-1.882326 0.71629,-0.574692 1.01613,-1.04111 1.01613,-1.565829 0,-0.474746 -0.30817,-0.832888 -0.51639,-0.974479 -0.39146,-0.258195 -0.92451,-0.299839 -1.39093,-0.299839 -0.22488,0 -0.89119,0.01666 -1.14105,0.01666 -0.14992,0 -0.61634,-0.01666 -0.99947,-0.01666 -0.10827,0 -0.16658,0.01666 -0.16658,0.06663 0,0.04997 0.05,0.07496 0.12494,0.07496 0.10827,0 0.23321,0.0083 0.29151,0.02499 0.23321,0.06663 0.29984,0.141591 0.3165,0.383129 0.008,0.224879 0.008,0.424773 0.008,1.499198 l 0,1.249331 m 0.93284,-2.806831 c 0,-0.0583 0.0167,-0.08329 0.0666,-0.09995 0.075,-0.01666 0.24987,-0.02499 0.4331,-0.02499 0.4331,0 1.11607,0.258197 1.11607,1.257661 0,0.583021 -0.24987,0.89119 -0.47474,1.049438 -0.12494,0.09162 -0.22488,0.116605 -0.5164,0.116605 -0.18323,0 -0.39978,-0.01666 -0.55803,-0.06663 -0.05,-0.02499 -0.0666,-0.04997 -0.0666,-0.124933 l 0,-2.107206"
         style="font-variant:normal;font-weight:bold;font-stretch:normal;fill:#ffffff;font-family:Trajan Pro;-inkscape-font-specification:Trajan Pro Bold"
         id="path3037" /><path
         d="m 119.18821,-69.345288 c 0,0.649652 0,1.207688 -0.0333,1.507527 -0.025,0.208222 -0.0666,0.341484 -0.21655,0.3748 -0.0666,0.01666 -0.14992,0.02499 -0.2582,0.02499 -0.0916,0 -0.1166,0.04164 -0.1166,0.07496 0,0.04997 0.05,0.07496 0.14159,0.07496 0.14992,0 0.33315,-0.0083 0.50806,-0.01666 0.17491,0 0.33316,-0.0083 0.41644,-0.0083 0.21655,0 0.49141,0.0083 0.84955,0.01666 0.35814,0.01666 0.79957,0.02499 1.34928,0.02499 0.27485,0 0.34148,0 0.39146,-0.183236 0.0416,-0.14159 0.0999,-0.624666 0.0999,-0.782914 0,-0.07496 -0.008,-0.166578 -0.0666,-0.166578 -0.05,0 -0.0666,0.03332 -0.0833,0.108276 -0.05,0.29151 -0.13326,0.44143 -0.3165,0.524719 -0.19156,0.08329 -0.49973,0.09162 -0.69129,0.09162 -0.7496,0 -0.97448,-0.108276 -0.99114,-0.591351 -0.008,-0.208221 0,-0.807901 0,-1.049438 l 0,-0.566364 c 0,-0.04164 0.008,-0.07496 0.0417,-0.07496 0.18323,0 1.01612,0.01666 1.14938,0.03332 0.27485,0.02499 0.36647,0.133262 0.40812,0.274853 0.0167,0.09162 0.0167,0.183235 0.025,0.258195 0,0.03332 0.0167,0.0583 0.0666,0.0583 0.0666,0 0.075,-0.09995 0.075,-0.158249 0,-0.04997 0.0167,-0.333155 0.0333,-0.474746 0.0416,-0.358141 0.0583,-0.474746 0.0583,-0.51639 0,-0.04164 -0.025,-0.07496 -0.0583,-0.07496 -0.0333,0 -0.0583,0.04165 -0.11661,0.09162 -0.0666,0.07496 -0.1749,0.09162 -0.34981,0.108275 -0.16658,0.01666 -1.11607,0.01666 -1.28265,0.01666 -0.0416,0 -0.05,-0.03332 -0.05,-0.07496 l 0,-1.749064 c 0,-0.04164 0.0167,-0.06663 0.05,-0.06663 0.14992,0 1.02446,0.01666 1.14939,0.03332 0.36647,0.03332 0.42477,0.133262 0.48307,0.258195 0.0417,0.08329 0.05,0.208222 0.05,0.258196 0,0.0583 0.008,0.09162 0.0583,0.09162 0.0583,0 0.075,-0.08329 0.0833,-0.116604 0.0167,-0.08329 0.0333,-0.391457 0.0416,-0.466417 0.0167,-0.324826 0.0583,-0.408115 0.0583,-0.458088 0,-0.03332 -0.008,-0.06663 -0.05,-0.06663 -0.0333,0 -0.075,0.02499 -0.1166,0.03332 -0.0583,0.0083 -0.17491,0.03332 -0.30817,0.04165 -0.14159,0.0083 -1.76572,0 -1.99893,0 -0.20822,0 -0.67464,-0.01666 -1.05777,-0.01666 -0.10827,0 -0.16658,0.01666 -0.16658,0.06663 0,0.04997 0.05,0.07496 0.12494,0.07496 0.10827,0 0.23321,0.0083 0.29151,0.02499 0.23321,0.06663 0.29984,0.141591 0.31649,0.383129 0.008,0.224879 0.008,0.424773 0.008,1.499198 l 0,1.249331"
         style="font-variant:normal;font-weight:bold;font-stretch:normal;fill:#ffffff;font-family:Trajan Pro;-inkscape-font-specification:Trajan Pro Bold"
         id="path3039" /></g></g></svg>